<svg width="23" height="21" viewBox="0 0 23 21" fill="none" xmlns="http://www.w3.org/2000/svg">
<path d="M8.5 1V0.5C8.3276 0.5 8.16737 0.58881 8.076 0.735001L8.5 1ZM6.625 4V4.5C6.7974 4.5 6.95763 4.41119 7.049 4.265L6.625 4ZM14.5 1L14.9 0.7C14.8056 0.574097 14.6574 0.5 14.5 0.5V1ZM16.75 4L16.35 4.3C16.4444 4.4259 16.5926 4.5 16.75 4.5V4ZM8.076 0.735001L6.201 3.735L7.049 4.265L8.924 1.265L8.076 0.735001ZM14.5 0.5H8.5V1.5H14.5V0.5ZM17.15 3.7L14.9 0.7L14.1 1.3L16.35 4.3L17.15 3.7ZM16.75 4.5H19V3.5H16.75V4.5ZM19 4.5C20.3807 4.5 21.5 5.61929 21.5 7H22.5C22.5 5.067 20.933 3.5 19 3.5V4.5ZM21.5 7V17H22.5V7H21.5ZM21.5 17C21.5 18.3807 20.3807 19.5 19 19.5V20.5C20.933 20.5 22.5 18.933 22.5 17H21.5ZM19 19.5H4V20.5H19V19.5ZM4 19.5C2.61929 19.5 1.5 18.3807 1.5 17H0.5C0.5 18.933 2.067 20.5 4 20.5V19.5ZM1.5 17V7H0.5V17H1.5ZM1.5 7C1.5 5.61929 2.61929 4.5 4 4.5V3.5C2.067 3.5 0.5 5.067 0.5 7H1.5ZM4 4.5H6.625V3.5H4V4.5Z" fill="black"/>
<circle cx="11.5" cy="11.5" r="4" stroke="black"/>
</svg>
