<svg width="22" height="22" viewBox="0 0 22 22" fill="#EC8F82" xmlns="http://www.w3.org/2000/svg">
<path d="M16 1L19 1C19.5304 1 20.0391 1.21071 20.4142 1.58579C20.7893 1.96086 21 2.46957 21 3L21 10C21 10.5304 20.7893 11.0391 20.4142 11.4142C20.0391 11.7893 19.5304 12 19 12L16 12M9 14L9 18C9 18.7956 9.31607 19.5587 9.87868 20.1213C10.4413 20.6839 11.2044 21 12 21L16 12L16 1L4.72 0.999999C4.23767 0.994546 3.76962 1.16359 3.4021 1.47599C3.03457 1.78839 2.79232 2.22309 2.72 2.7L1.34 11.7C1.29649 11.9866 1.31583 12.2793 1.39666 12.5577C1.4775 12.8362 1.6179 13.0937 1.80814 13.3125C1.99839 13.5313 2.23392 13.7061 2.49843 13.8248C2.76294 13.9435 3.05009 14.0033 3.34 14L9 14Z" stroke="#EA0000" stroke-width="2" stroke-linecap="round" stroke-linejoin="round"/>
</svg>
