<svg width="17" height="16" viewBox="0 0 17 16" fill="none" xmlns="http://www.w3.org/2000/svg">
<path d="M0.635775 4.89601C1.05925 3.90983 1.62873 3.05905 2.34398 2.3438C3.05936 1.62855 3.91001 1.05881 4.89633 0.635464C5.88251 0.211736 6.91715 0 8.00051 0C9.02134 0 10.0092 0.192557 10.9643 0.578055C11.9192 0.962914 12.7684 1.50696 13.5113 2.2084L14.8657 0.864461C15.0741 0.649145 15.3136 0.600558 15.5845 0.718573C15.8624 0.836716 16.0012 1.04168 16.0012 1.33332V6.00021C16.0012 6.18075 15.9352 6.337 15.8033 6.46895C15.6712 6.6009 15.515 6.66688 15.3344 6.66688H10.6675C10.3758 6.66688 10.1709 6.52802 10.0529 6.25018C9.9349 5.97937 9.98349 5.73976 10.1988 5.53135L11.626 4.09382C11.1397 3.63544 10.5842 3.28306 9.95868 3.03642C9.33358 2.78991 8.68085 2.66652 8.00025 2.66652C7.27797 2.66652 6.58868 2.80729 5.93276 3.08846C5.27645 3.36975 4.70888 3.75001 4.22966 4.22923C3.75044 4.70832 3.37019 5.27601 3.0889 5.93232C2.80773 6.58863 2.66709 7.27779 2.66709 7.99982C2.66709 8.72223 2.80773 9.41139 3.0889 10.0673C3.37019 10.7236 3.75044 11.2913 4.22966 11.7705C4.70888 12.2498 5.27658 12.63 5.93276 12.9112C6.58906 13.1925 7.27848 13.3331 8.00025 13.3331C8.82674 13.3331 9.60797 13.1526 10.3442 12.7915C11.0803 12.4304 11.7018 11.92 12.2088 11.2601C12.2574 11.1907 12.3366 11.1489 12.4484 11.1349C12.5526 11.1349 12.6394 11.1661 12.7088 11.2287L14.136 12.6663C14.1915 12.7221 14.221 12.793 14.2245 12.8798C14.2279 12.9668 14.2053 13.0448 14.1567 13.1142C13.3997 14.031 12.483 14.7411 11.4066 15.2445C10.3301 15.7479 9.19459 15.9998 8.00013 15.9998C6.91677 15.9998 5.882 15.7879 4.89581 15.3643C3.90963 14.9407 3.0591 14.3711 2.3436 13.656C1.62835 12.9405 1.05861 12.0899 0.635263 11.1037C0.211663 10.1176 -7.43866e-05 9.08266 -7.43866e-05 7.99943C-7.43866e-05 6.91595 0.211791 5.88156 0.635391 4.89538" fill="#2B373E"/>
</svg>
