<svg width="5" height="20" viewBox="0 0 5 20" fill="none" xmlns="http://www.w3.org/2000/svg">
<path d="M0.880454 13.2494L0.496454 0.111084H4.25417L3.84274 13.2494H0.880454ZM2.44388 19.5031C1.7856 19.5031 1.24617 19.3019 0.825597 18.8997C0.423311 18.4974 0.222168 18.0128 0.222168 17.4459C0.222168 16.8608 0.423311 16.3671 0.825597 15.9648C1.24617 15.5625 1.7856 15.3614 2.44388 15.3614C3.0656 15.3614 3.5776 15.5625 3.97988 15.9648C4.40045 16.3671 4.61074 16.8608 4.61074 17.4459C4.61074 18.0128 4.40045 18.4974 3.97988 18.8997C3.5776 19.3019 3.0656 19.5031 2.44388 19.5031Z" fill="#D81E05"/>
</svg>
